<svg xmlns="http://www.w3.org/2000/svg" viewBox="0 0 200 200" width="200" height="200">
	<defs>
		<clipPath clipPathUnits="userSpaceOnUse" id="cp1">
			<path d="M12 12L186.27 12L186.27 186.27L12 186.27L12 12Z" />
		</clipPath>
	</defs>
	<style>
		tspan { white-space:pre }
		.shp0 { fill: #fdb913 } 
		.shp1 { fill: #ffffff } 
		.shp2 { fill: #231f20 } 
	</style>
	<g id="Clip-Path" clip-path="url(#cp1)">
		<g id="Layer">
			<path id="Layer" class="shp0" d="M29 14.97L169.27 14.97C171.12 14.97 172.94 15.33 174.64 16.04C176.34 16.74 177.89 17.78 179.19 19.08C180.5 20.38 181.53 21.93 182.23 23.63C182.94 25.33 183.3 27.16 183.3 29L183.3 169.28C183.3 171.12 182.94 172.94 182.23 174.65C181.53 176.35 180.5 177.89 179.19 179.2C177.89 180.5 176.34 181.53 174.64 182.24C172.94 182.94 171.12 183.31 169.27 183.31L28.99 183.31C27.15 183.31 25.33 182.94 23.63 182.24C21.92 181.53 20.38 180.5 19.08 179.2C17.77 177.89 16.74 176.35 16.04 174.65C15.33 172.95 14.97 171.12 14.97 169.28L14.97 29C14.97 27.16 15.33 25.33 16.04 23.63C16.74 21.93 17.77 20.38 19.08 19.08C20.38 17.78 21.93 16.74 23.63 16.04C25.33 15.33 27.15 14.97 29 14.97L29 14.97Z" />
			<path id="Layer" fill-rule="evenodd" class="shp1" d="M169.28 12C171.51 12 173.72 12.44 175.78 13.3C177.84 14.15 179.71 15.41 181.29 16.98C182.87 18.56 184.12 20.44 184.97 22.5C185.83 24.56 186.27 26.77 186.27 29L186.27 169.28C186.27 171.51 185.83 173.72 184.97 175.78C184.12 177.84 182.87 179.71 181.29 181.29C179.71 182.87 177.84 184.12 175.78 184.97C173.72 185.83 171.51 186.27 169.28 186.27L29 186.27C26.77 186.27 24.56 185.83 22.5 184.98C20.43 184.12 18.56 182.87 16.98 181.29C15.41 179.71 14.15 177.84 13.3 175.78C12.44 173.72 12 171.51 12 169.28L12 29C12 26.77 12.44 24.56 13.3 22.5C14.15 20.43 15.41 18.56 16.98 16.98C18.56 15.41 20.43 14.15 22.5 13.3C24.56 12.44 26.77 12 29 12L169.28 12M169.28 14.97L29 14.97C27.15 14.97 25.33 15.33 23.63 16.04C21.93 16.74 20.38 17.77 19.08 19.08C17.77 20.38 16.74 21.93 16.04 23.63C15.33 25.33 14.97 27.16 14.97 29L14.97 169.28C14.97 171.12 15.33 172.94 16.04 174.65C16.74 176.35 17.77 177.89 19.08 179.2C20.38 180.5 21.93 181.53 23.63 182.24C25.33 182.94 27.15 183.31 29 183.3L169.28 183.3C171.12 183.3 172.94 182.94 174.64 182.24C176.35 181.53 177.89 180.5 179.19 179.2C180.5 177.89 181.53 176.35 182.23 174.64C182.94 172.94 183.3 171.12 183.3 169.28L183.3 29C183.3 27.16 182.94 25.33 182.23 23.63C181.53 21.93 180.5 20.38 179.19 19.08C177.89 17.78 176.35 16.74 174.64 16.04C172.94 15.33 171.12 14.97 169.28 14.97" />
			<path id="Layer" class="shp2" d="M108.96 100.95L108.94 70.82L116.81 68.95L116.81 72.9C116.81 72.9 118.85 67.7 123.58 66.5C123.75 66.44 123.93 66.39 124.11 66.36C124.3 66.33 124.48 66.3 124.66 66.29C124.85 66.28 125.03 66.28 125.22 66.29C125.4 66.3 125.58 66.32 125.77 66.35L125.77 74.04C125.41 74.04 125.06 74.07 124.71 74.1C124.36 74.14 124.01 74.2 123.66 74.27C123.32 74.34 122.98 74.43 122.64 74.54C122.3 74.64 121.97 74.76 121.64 74.9C118.74 76.05 117.27 78.55 117.27 82.38L117.28 99.02L108.96 100.95Z" />
			<path id="Layer" class="shp2" d="M67.49 110.75C67.49 110.75 66.21 108.84 66.21 102.06L66.21 87.05L62.16 88.01L62.16 81.83L66.22 80.87L66.22 74.13L74.58 72.16L74.58 78.9L80.49 77.49L80.49 83.67L74.58 85.07C74.58 85.07 74.57 97.36 74.58 100.35C74.58 107.3 76.43 108.63 76.43 108.63L67.49 110.75Z" />
			<path id="Layer" fill-rule="evenodd" class="shp2" d="M81.37 92.82C81.37 87.47 82.13 83.56 83.77 80.56C85.72 77 88.91 74.68 93.57 73.62C102.75 71.53 106.06 76.96 105.93 84.25C105.88 86.85 105.89 88.12 105.89 88.12L89.73 91.92L89.73 92.18C89.73 97.27 90.79 99.69 94.02 99C96.8 98.41 97.58 96.67 97.8 94.51C97.83 94.16 97.85 93.28 97.85 93.28L105.43 91.46C105.43 91.46 105.44 92.08 105.43 92.78C105.37 95.67 104.53 102.84 94 105.33C84.03 107.7 81.37 101.61 81.37 92.82ZM93.91 79.23C91.23 79.84 89.82 82.47 89.76 86.82L97.89 84.88C97.91 84.69 97.91 84.25 97.91 83.57C97.89 80.29 96.88 78.55 93.91 79.23Z" />
			<path id="Layer" class="shp2" d="M154.08 75.2C153.77 66.02 156.15 58.74 166.39 56.42C172.92 54.93 175.39 56.63 176.65 58.27C177.86 59.84 178.32 61.95 178.32 64.91L178.33 65.45L170.32 67.36C170.32 67.36 170.31 66.28 170.31 66.24C170.32 62.73 169.34 61.4 166.79 62.04C163.76 62.8 162.54 65.67 162.54 71.39C162.54 73.42 162.55 73.78 162.55 74.06C162.55 79.87 163.34 82.53 166.84 81.8C169.86 81.17 170.28 78.51 170.33 76.18C170.33 75.82 170.35 74.64 170.35 74.64L178.35 72.75C178.35 72.75 178.36 73.34 178.36 74C178.34 81.62 174.32 86.42 166.8 88.17C156.43 90.6 154.4 84.61 154.08 75.2Z" />
			<path id="Layer" fill-rule="evenodd" class="shp2" d="M126.38 88.05C126.38 81.07 130.47 78.86 136.63 76.31C142.16 74.02 142.28 72.89 142.31 70.9C142.34 69.22 141.56 67.79 138.81 68.49C138.35 68.58 137.91 68.75 137.51 68.99C137.11 69.23 136.75 69.53 136.45 69.88C136.15 70.24 135.91 70.64 135.74 71.08C135.58 71.51 135.48 71.97 135.47 72.44C135.46 72.56 135.45 72.69 135.44 72.82C135.43 72.95 135.43 73.08 135.42 73.21C135.42 73.34 135.42 73.47 135.42 73.59C135.41 73.72 135.42 73.85 135.42 73.98L127.66 75.81C127.64 75.43 127.64 75.04 127.66 74.66C127.68 74.27 127.71 73.89 127.75 73.5C127.8 73.12 127.86 72.74 127.93 72.36C128 71.98 128.09 71.6 128.19 71.23C129.43 67.05 133.11 64.25 139.47 62.77C147.73 60.87 150.48 64.5 150.49 70.13L150.49 83.48C150.49 89.94 151.69 90.88 151.69 90.88L144.07 92.69C143.96 92.47 143.86 92.24 143.77 92.02C143.67 91.79 143.58 91.57 143.5 91.34C143.41 91.11 143.33 90.88 143.26 90.65C143.18 90.42 143.11 90.18 143.05 89.95C142.98 89.71 141.38 94.15 135.63 95.5C129.58 96.93 126.38 93.19 126.38 88.05ZM142.25 78.52C141.93 78.74 141.61 78.96 141.28 79.17C140.95 79.38 140.61 79.59 140.28 79.79C139.94 79.98 139.6 80.18 139.25 80.36C138.9 80.54 138.55 80.72 138.2 80.89C135.66 82.13 134.51 83.66 134.51 86.02C134.51 88.06 135.78 89.4 138.08 88.84C140.54 88.21 142.25 85.91 142.25 82.72L142.25 78.52Z" />
			<path id="Layer" class="shp2" d="M23.75 131.88C22.88 131.88 22.03 131.65 21.28 131.2C20.53 130.76 19.92 130.12 19.5 129.35C19.09 128.59 18.89 127.73 18.92 126.86C18.96 125.99 19.22 125.14 19.7 124.41L19.75 124.34L19.84 124.32L31.22 121.63L31.22 130.28L31.04 130.32C28.46 130.94 25.38 131.64 24.74 131.78C24.66 131.8 24.58 131.81 24.49 131.82C24.41 131.84 24.33 131.85 24.25 131.86C24.16 131.87 24.08 131.87 24 131.88C23.92 131.88 23.83 131.88 23.75 131.88" />
			<path id="Layer" class="shp2" d="M23.75 142.94C23.11 142.94 22.49 142.81 21.9 142.57C21.32 142.33 20.78 141.97 20.33 141.52C19.89 141.08 19.53 140.54 19.29 139.96C19.04 139.37 18.92 138.75 18.92 138.11C18.92 137.88 18.93 137.65 18.97 137.42C19 137.19 19.05 136.96 19.11 136.74C19.18 136.52 19.26 136.3 19.36 136.09C19.46 135.88 19.57 135.68 19.7 135.48L19.75 135.4L19.84 135.38L31.22 132.7L31.22 141.34L31.04 141.38C28.46 142 25.38 142.72 24.74 142.84C24.66 142.86 24.58 142.87 24.49 142.88C24.41 142.9 24.33 142.91 24.25 142.91C24.16 142.92 24.08 142.93 24 142.93C23.91 142.93 23.83 142.94 23.75 142.94" />
			<path id="Layer" class="shp2" d="M23.75 154.01C23.11 154.01 22.49 153.89 21.9 153.64C21.31 153.4 20.78 153.04 20.33 152.6C19.89 152.15 19.53 151.62 19.29 151.03C19.04 150.44 18.92 149.82 18.92 149.18C18.92 148.95 18.93 148.72 18.97 148.49C19 148.26 19.05 148.03 19.11 147.81C19.18 147.59 19.26 147.37 19.36 147.16C19.46 146.95 19.57 146.75 19.7 146.56L19.75 146.47L31.22 143.77L31.22 152.41L31.04 152.45C28.32 153.11 25.29 153.79 24.74 153.91C24.66 153.93 24.58 153.94 24.49 153.96C24.41 153.97 24.33 153.98 24.25 153.99C24.16 154 24.08 154 24 154.01C23.92 154.01 23.83 154.01 23.75 154.01" />
			<path id="Layer" class="shp2" d="M22.41 121.29L22.4 72.94L31.22 70.86L31.22 119.21L22.41 121.29L22.41 121.29Z" />
			<path id="Layer" class="shp2" d="M44.36 117.18C44.36 115.74 43.79 114.36 42.77 113.34C41.75 112.32 40.37 111.74 38.92 111.74C37.48 111.74 36.1 112.32 35.08 113.34C34.06 114.36 33.49 115.74 33.49 117.18L33.49 162.37C33.5 164.3 33.88 166.22 34.62 168C35.36 169.78 36.44 171.41 37.81 172.77C39.17 174.14 40.8 175.23 42.58 175.97C44.37 176.71 46.28 177.09 48.21 177.1C52.33 177.1 63.61 177.08 63.61 177.08L63.61 158.22C63.61 147.92 63.62 137.44 63.62 137.2C63.62 136.62 63.54 136.04 63.4 135.47C63.26 134.9 63.05 134.36 62.78 133.84C62.5 133.33 62.16 132.85 61.77 132.41C61.38 131.98 60.94 131.6 60.45 131.27L46.73 121.95C46.73 121.95 46.73 142.19 46.73 143.12C46.73 143.43 46.6 143.72 46.39 143.94C46.17 144.16 45.87 144.29 45.56 144.29C45.25 144.29 44.95 144.16 44.73 143.94C44.51 143.72 44.39 143.43 44.39 143.12C44.39 142.89 44.36 119.98 44.36 117.18" />
			<path id="Layer" class="shp2" d="M51.71 83.47C50.88 83.66 50.07 83.94 49.3 84.31C48.53 84.67 47.8 85.12 47.12 85.64C46.45 86.16 45.83 86.76 45.28 87.41C44.73 88.06 44.26 88.78 43.86 89.53L43.86 86.13L35.92 88.01L35.93 109.71C36.63 109.44 37.35 109.26 38.09 109.18C38.84 109.11 39.58 109.14 40.32 109.26C41.05 109.39 41.76 109.62 42.44 109.94C43.11 110.27 43.73 110.68 44.29 111.17L44.29 97.16C44.29 93.81 45.96 91.12 48.35 90.6C50.14 90.2 51.64 90.85 51.64 94.04L51.65 114.49L60.01 112.53L60.01 90.9C60.01 85.66 57.99 81.99 51.71 83.47" />
			<path id="Layer" fill-rule="evenodd" class="shp2" d="M173.17 52.52C171.08 52.52 169.2 51.26 168.4 49.33C167.59 47.4 168.04 45.18 169.51 43.7C170.99 42.22 173.22 41.78 175.15 42.58C177.08 43.38 178.34 45.27 178.34 47.36C178.34 48.03 178.2 48.71 177.94 49.33C177.68 49.96 177.3 50.53 176.82 51.01C176.34 51.49 175.77 51.87 175.15 52.13C174.52 52.39 173.85 52.52 173.17 52.52ZM173.17 42.84C171.35 42.84 169.7 43.94 169 45.62C168.3 47.31 168.68 49.26 169.98 50.55C171.27 51.84 173.21 52.23 174.9 51.53C176.59 50.83 177.69 49.18 177.69 47.36C177.69 46.76 177.57 46.18 177.35 45.63C177.12 45.08 176.79 44.58 176.37 44.16C175.95 43.74 175.45 43.41 174.9 43.18C174.35 42.95 173.77 42.84 173.17 42.84Z" />
			<path id="Layer" fill-rule="evenodd" class="shp2" d="M171.29 44.28L173.52 44.28C173.74 44.25 173.96 44.28 174.16 44.35C174.37 44.43 174.56 44.55 174.71 44.7C174.86 44.86 174.98 45.05 175.05 45.25C175.12 45.46 175.15 45.68 175.12 45.9C175.12 46.72 174.76 47.34 174.07 47.45L174.07 47.46C174.69 47.53 175.02 47.87 175.06 48.76C175.07 49.16 175.07 49.66 175.09 50.04C175.09 50.1 175.1 50.15 175.11 50.2C175.13 50.25 175.15 50.3 175.17 50.35C175.2 50.4 175.23 50.44 175.27 50.48C175.3 50.52 175.35 50.56 175.39 50.59L174.25 50.59C174.23 50.55 174.2 50.5 174.18 50.46C174.16 50.41 174.14 50.37 174.13 50.32C174.11 50.27 174.1 50.22 174.1 50.17C174.09 50.13 174.08 50.08 174.08 50.03C174.05 49.65 174.06 49.29 174.04 48.84C174.02 48.15 173.81 47.85 173.12 47.85L172.3 47.85L172.3 50.59L171.29 50.59L171.29 44.28ZM173.1 47.09C173.24 47.1 173.38 47.08 173.51 47.03C173.64 46.99 173.75 46.91 173.85 46.81C173.95 46.72 174.02 46.6 174.06 46.47C174.11 46.34 174.12 46.2 174.11 46.06C174.11 45.39 173.82 45.04 173.16 45.04L172.3 45.04L172.3 47.09L173.1 47.09Z" />
		</g>
	</g>
</svg>